<svg width="369" height="399" viewBox="0 0 369 399" fill="none" xmlns="http://www.w3.org/2000/svg">
<path d="M72.8696 1.43388C42.7517 6.05873 22.7859 21.2869 9.58811 49.6C1.69202 66.4074 0 75.2059 0 98.443C0 116.83 0.338404 119.762 2.93283 129.689C6.42967 142.548 14.213 161.499 22.5603 177.404C28.8771 189.474 32.7124 199.4 33.7276 206.732C34.066 209.214 34.8556 214.741 35.5324 219.14C36.0964 223.427 36.886 236.625 37.1116 248.469C38.2396 304.531 43.2029 331.039 58.6567 361.947C67.4551 379.882 78.0585 394.208 84.6009 397.366C89.677 399.735 97.0091 399.51 100.844 396.802C107.048 392.403 108.628 386.876 109.981 364.654C113.365 307.464 126.789 265.163 148.785 241.475C161.193 228.052 175.519 221.735 188.378 224.104C218.834 229.744 241.507 263.471 252.336 319.533C253.916 327.542 254.705 332.393 256.172 344.35C256.397 346.155 256.961 355.855 257.412 365.782C258.428 386.537 260.345 392.854 266.888 396.802C279.07 404.247 293.622 392.629 307.835 364.203C322.612 334.649 328.364 307.351 329.831 260.313C331.523 209.552 333.102 200.19 344.044 179.321C353.745 160.709 360.513 143.902 364.348 128.674C368.522 112.656 369.424 87.5012 366.491 73.8523C362.205 54.2249 351.376 33.8078 338.629 21.6253C319.002 2.7875 287.418 -4.09338 255.382 3.2387C235.303 7.86355 228.197 10.7964 205.185 23.8813C197.966 28.055 195.146 29.0702 190.86 29.0702C187.814 29.0702 185.445 29.4086 185.445 29.747C185.445 30.0854 188.378 33.695 191.875 37.7559C198.756 45.5392 211.164 56.0297 221.429 62.5722C230.679 68.5506 258.54 81.6356 266.549 83.8916C270.272 85.0196 273.43 86.2604 273.43 86.7116C273.43 88.2909 253.352 86.3732 243.087 83.666C220.639 77.9131 199.207 64.6026 174.165 40.9143C154.538 22.5277 146.98 16.8877 133.444 10.7964C120.133 4.93072 109.868 2.11069 96.4451 0.869876C83.5857 -0.370938 84.7137 -0.370938 72.8696 1.43388ZM100.28 32.567C107.725 33.9206 122.051 41.9295 123.63 45.5392C125.999 50.5024 123.517 50.9536 112.237 47.1184C90.6922 40.0119 70.7264 44.1856 56.2878 58.8497C44.4437 70.9195 39.4804 85.1324 39.706 106.226C39.9316 117.732 42.5261 138.487 44.5565 145.03C46.6997 151.572 45.0077 151.347 40.8341 144.466C31.2459 128.223 26.8467 110.513 27.9747 92.2389C28.8771 78.7027 29.6667 75.3187 34.63 65.0538C43.8797 45.8776 60.7999 33.5822 81.1041 31.3262C88.0978 30.5366 90.5794 30.7622 100.28 32.567ZM185.445 81.7484C189.732 107.241 198.53 122.47 212.856 129.351C220.752 133.299 231.355 136.231 237.334 136.231C239.477 136.231 242.071 136.683 242.974 137.359C245.004 138.6 244.666 138.826 231.13 141.307C225.603 142.323 217.932 144.691 214.21 146.384C206.201 150.106 197.177 159.017 192.89 167.477C189.732 173.794 185.445 189.022 185.445 193.986C185.445 196.016 184.881 197.144 183.753 197.144C182.625 197.144 182.061 196.016 182.061 193.422C182.061 188.346 178.113 174.358 174.729 167.929C166.833 152.136 154.425 144.24 132.09 140.631C127.014 139.841 123.743 138.826 124.307 138.262C124.871 137.698 128.481 136.795 132.541 136.231C149.8 133.524 157.922 129.915 165.705 121.342C174.391 111.866 178.339 101.037 181.723 77.8003C182.625 72.0475 183.979 73.5139 185.445 81.7484Z" fill="#04CFC9"/>
</svg>
